<svg width="129" height="25" viewBox="0 0 129 25" fill="none" xmlns="http://www.w3.org/2000/svg">
<path d="M2.31727 17.3862C2.17563 17.3862 2.06081 17.2714 2.06081 17.1298V0.256464C2.06081 0.114823 1.94599 0 1.80435 0H0.256463C0.114823 0 0 0.114822 0 0.256463V18.8793C0 19.021 0.114822 19.1358 0.256463 19.1358H13.0151C13.1568 19.1358 13.2716 19.021 13.2716 18.8793V17.6427C13.2716 17.5011 13.1568 17.3862 13.0151 17.3862H2.31727Z" fill="#2A3247"/>
<path d="M21.5143 19.4444C24.1254 19.4444 26.2998 18.6035 27.6655 17.0446C27.7516 16.9463 27.744 16.7987 27.6522 16.7058L26.7102 15.7518C26.605 15.6452 26.4315 15.6516 26.3278 15.7597C25.1922 16.9432 23.5017 17.5814 21.5143 17.5814C18.0884 17.5814 15.9886 15.8828 15.9886 12.7868C15.9886 12.7263 16.0377 12.6772 16.0982 12.6772H28.3638C28.4918 12.6772 28.6004 12.5829 28.6159 12.4558C28.9184 9.97784 28.4391 7.89566 27.178 6.48539C25.9071 5.08812 23.9731 4.32098 21.5143 4.32098C16.7346 4.32098 13.8889 7.14293 13.8889 11.8827C13.8889 16.6225 16.7346 19.4444 21.5143 19.4444ZM15.9886 11.006C15.9886 7.93746 18.1436 6.18402 21.5143 6.18402C23.3376 6.18402 24.7743 6.67717 25.7137 7.63609C26.4711 8.38725 26.8335 9.43228 26.8241 10.8406C26.8232 10.9787 26.7094 11.0882 26.5714 11.0882H16.0708C16.0254 11.0882 15.9886 11.0514 15.9886 11.006Z" fill="#2A3247"/>
<path d="M36.0899 16.757C37.7337 17.0582 39.4872 17.2499 40.3365 17.469C41.5694 17.7976 43.953 18.6192 43.4598 20.7279C42.9174 23.0592 38.6166 23.0828 38.5296 23.083C38.5269 23.083 38.5268 23.0831 38.524 23.0831C33.4721 23.2423 32.8502 20.495 32.781 19.6048C32.7694 19.4566 32.6485 19.3312 32.4999 19.3312H31.132C30.9938 19.3312 30.8799 19.4421 30.8805 19.5802C30.8979 23.3217 34.3371 25 38.1173 25C41.7886 25 45.4872 23.7403 45.4324 20.0432C45.3917 17.9271 43.7629 16.8692 42.3328 16.3754C42.064 16.2826 42.0504 15.7498 42.3145 15.6444C44.2667 14.8653 45.679 13.3291 45.679 10.6226C45.679 8.02551 44.5386 6.38509 42.8372 5.64872C42.6001 5.54608 42.584 5.13491 42.8143 5.0177C43.7511 4.5409 44.3503 3.92363 44.6056 3.62499C44.6901 3.52622 44.6749 3.382 44.5785 3.29489L43.5362 2.35328C43.4225 2.25056 43.245 2.27056 43.1473 2.38865C41.7347 4.09733 39.2207 4.32395 38.1173 4.32395C34.4186 4.32395 30.5556 5.91231 30.5556 10.6226C30.5556 14.484 33.0761 16.1819 36.0899 16.757ZM32.6104 10.6774C32.6104 6.98034 35.5967 6.24093 38.1173 6.24093C40.6105 6.24093 43.6242 6.98034 43.6242 10.6774C43.6242 14.3744 40.6105 15.196 38.1173 15.196C35.5967 15.196 32.6104 14.3744 32.6104 10.6774Z" fill="#2A3247"/>
<path d="M54.8974 19.4444C57.0567 19.4444 58.8096 18.8323 60.0534 17.6904C60.2077 17.5487 60.4674 17.6221 60.5094 17.8273L60.7759 19.1298C60.8003 19.2492 60.9053 19.3349 61.0271 19.3349H62.0892C62.2309 19.3349 62.3457 19.22 62.3457 19.0784V4.68704C62.3457 4.5454 62.2309 4.43057 62.0892 4.43057H61.0266C60.905 4.43057 60.8001 4.51591 60.7754 4.63494L60.5104 5.91264C60.4679 6.11738 60.2086 6.1903 60.0543 6.04912C58.8105 4.91079 57.0572 4.32098 54.8974 4.32098C50.2592 4.32098 47.5309 7.11554 47.5309 11.8827C47.5309 16.6225 50.2592 19.4444 54.8974 19.4444ZM55.0611 6.21142C58.6352 6.21142 60.545 8.15664 60.545 11.8827C60.545 15.5814 58.6352 17.554 55.0611 17.554C51.487 17.554 49.5771 15.5814 49.5771 11.8827C49.5771 8.15664 51.487 6.21142 55.0611 6.21142Z" fill="#2A3247"/>
<path d="M67.3361 19.1358C67.4778 19.1358 67.5926 19.021 67.5926 18.8793V0.256463C67.5926 0.114823 67.4778 0 67.3361 0H65.6886C65.5469 0 65.4321 0.114822 65.4321 0.256463V18.8793C65.4321 19.021 65.5469 19.1358 65.6886 19.1358H67.3361Z" fill="#2A3247"/>
<path d="M79.8065 19.1358C83.0506 19.1358 87.037 18.4524 87.037 13.8051C87.037 11.1675 85.9193 9.70795 84.1877 8.96553C83.9768 8.87509 83.9506 8.56 84.1413 8.43239C85.2441 7.69458 85.9648 6.55674 85.9648 4.94797C85.9648 0.492064 82.4733 0 79.1742 0H70.9355C70.7938 0 70.679 0.114822 70.679 0.256463V18.8793C70.679 19.021 70.7938 19.1358 70.9355 19.1358H79.8065ZM72.9974 17.4136C72.8558 17.4136 72.741 17.2988 72.741 17.1571V10.1534C72.741 10.0114 72.8564 9.89641 72.9985 9.89698L79.5041 9.92328C81.9784 9.92328 85.0026 9.89594 85.0026 13.7504C85.0026 17.5776 81.1811 17.4136 79.1192 17.4136H72.9974ZM79.2567 1.74956C80.7962 1.74956 83.9304 1.69489 83.9304 4.97531C83.9304 8.25573 80.9887 8.17372 79.4216 8.17372H72.9974C72.8558 8.17372 72.741 8.0589 72.741 7.91726V2.00602C72.741 1.86438 72.8558 1.74956 72.9974 1.74956H79.2567Z" fill="#2A3247"/>
<path d="M89.1975 11.8827C89.1975 16.6499 91.9921 19.4444 96.7592 19.4444C101.526 19.4444 104.321 16.6499 104.321 11.8827C104.321 7.11554 101.526 4.32098 96.7592 4.32098C91.9921 4.32098 89.1975 7.11554 89.1975 11.8827ZM96.7592 6.21142C100.348 6.21142 102.266 8.15665 102.266 11.8827C102.266 15.5814 100.348 17.554 96.7592 17.554C93.1701 17.554 91.2523 15.5814 91.2523 11.8827C91.2523 8.18404 93.1701 6.21142 96.7592 6.21142Z" fill="#2A3247"/>
<path d="M106.871 15.7128C106.871 15.7157 106.872 15.7183 106.872 15.7212C107.171 18.038 108.688 19.4444 110.773 19.4444C112.51 19.4444 113.449 18.7011 113.765 18.3908C113.843 18.3141 113.849 18.1956 113.789 18.104L113.097 17.0461C113.004 16.9049 112.799 16.8873 112.663 16.9864C112.304 17.2469 111.709 17.5116 111.017 17.5116C110.719 17.5116 110.367 17.4564 110.014 17.3183C108.684 16.7602 108.735 15.1279 108.741 15.0061C108.741 15.0008 108.741 14.9962 108.741 14.9909V6.33656C108.741 6.19492 108.856 6.0801 108.997 6.0801H112.63C112.772 6.0801 112.886 5.96527 112.886 5.82363V4.56937C112.886 4.42773 112.772 4.31291 112.63 4.31291H108.997C108.856 4.31291 108.741 4.19808 108.741 4.05644V2.63341C108.741 2.42985 108.515 2.30745 108.338 2.40838C107.912 2.65191 107.544 2.78915 106.999 2.90461C106.878 2.93016 106.79 3.03559 106.79 3.15896V13.7011C106.79 15.1418 106.863 15.6631 106.871 15.7128Z" fill="#2A3247"/>
<path d="M115.382 14.9011C115.24 14.9011 115.124 15.0178 115.134 15.16C115.331 17.9774 118.32 19.5455 121.881 19.4394C126.1 19.4394 128.059 17.389 128.086 15.3932C128.114 12.8507 126.293 11.5111 121.936 10.9097C118.985 10.4996 117.606 9.59738 117.633 8.25778C117.716 6.80882 119.178 6.01599 121.522 6.01599C123.242 6.04221 125.342 6.62177 125.51 8.5749C125.522 8.71601 125.636 8.8319 125.778 8.8319H127.187C127.332 8.8319 127.449 8.71205 127.437 8.5679C127.217 5.98754 124.941 4.37388 121.632 4.32098C118.24 4.32098 115.978 5.82462 115.813 8.23044C115.647 10.6636 117.495 12.0852 121.632 12.6593C125.935 13.2608 126.045 14.6004 126.073 15.0925C126.073 17.4163 123.673 17.717 121.798 17.7444C118.181 17.7444 117.226 15.9778 117.036 15.1344C117.006 15.0041 116.896 14.9011 116.762 14.9011H115.382Z" fill="#2A3247"/>
</svg>
