<svg width="140" height="26" viewBox="0 0 140 26" fill="none" xmlns="http://www.w3.org/2000/svg">
<path d="M125 14.9825C125.032 18.446 128.797 20.1038 132.626 20.2222C137.593 20.2222 139.935 17.7948 139.998 15.4265C140.093 11.6374 136.265 10.6901 132.91 10.2164C130.632 9.89082 129.493 9.7428 129.525 8.6475C129.556 7.55219 131.328 7.31537 132.404 7.31537C133.607 7.31537 135.442 7.6706 135.442 9.09154H139.365C139.271 5.98324 136.518 3.91104 132.531 3.85184C128.544 3.85184 125.791 5.65761 125.57 8.46988C125.221 12.7623 130.569 13.4432 132.309 13.68C134.556 13.976 135.822 14.4201 135.98 15.1601C136.201 16.2554 134.872 16.7291 132.721 16.7291C129.873 16.7291 129.082 15.4858 128.924 14.9825H125Z" fill="#484150"/>
<path d="M116.089 16.0177C116.443 18.5633 118.095 20.2222 120.603 20.2222C123.436 20.2222 124.823 18.5919 125 18.3345L122.964 15.9891C122.964 15.9891 122.138 16.7328 121.164 16.7328C120.928 16.7328 120.662 16.7042 120.397 16.5612C119.659 16.1894 119.748 15.2169 119.748 15.2169L119.777 7.95201L122.964 7.92341V4.49119L119.748 4.51979V8.61209e-05C117.875 -8.33902e-05 117.688 -2.51356e-06 116 1.08577e-07V14.0442C116 15.4457 116.059 15.9605 116.089 16.0177Z" fill="#484150"/>
<path d="M97 12.037C97 17.0786 100.264 20.2222 105.5 20.2222C110.735 20.2222 114 17.0786 114 12.037C114 6.99542 110.735 3.85184 105.5 3.85184C100.264 3.85184 97 6.99542 97 12.037ZM105.5 7.41061C108.61 7.41061 110.119 8.92309 110.119 12.037C110.119 15.151 108.61 16.6634 105.5 16.6634C102.389 16.6634 100.88 15.151 100.88 12.037C100.88 8.92309 102.389 7.41061 105.5 7.41061Z" fill="#484150"/>
<path d="M87.357 20.2222C93.6793 20.2222 95 16.9 95 14.0978C95 11.9022 94.2694 10.1111 92.7802 9.12889C93.6231 8.40667 94.0446 7.02001 94.0446 5.7489C94.0165 0 88.7901 0 86.795 0H78V20.2222H87.357ZM87.1322 11.4978C89.914 11.4978 91.1223 11.7289 91.1223 14.04C91.1223 15.86 90.1388 16.4667 87.2446 16.4667H81.9339C82.4013 14.5845 82.4073 13.4883 81.9339 11.4689L87.1322 11.4978ZM87.0198 3.75556C89.3521 3.75556 90.1388 4.24667 90.1388 5.7489C90.1388 7.25112 89.4364 7.74223 87.2727 7.74223H81.9339C82.3342 6.21939 82.3378 5.34355 81.9339 3.75556H87.0198Z" fill="#484150"/>
<path d="M75 20.2222V0H73V20.2222H75Z" fill="#484150"/>
<path d="M61.453 20.2222C64.1768 20.2222 66.337 19.4215 67.7772 17.9387L68.2614 20.2222H70V3.85184H68.5L67.7772 6.10573C66.337 4.62291 64.1768 3.85184 61.453 3.85184C56.1308 3.85184 53 6.8768 53 12.037C53 17.1676 56.1308 20.2222 61.453 20.2222ZM61.6409 5.89813C65.7422 5.89813 67.9337 8.00374 67.9337 12.037C67.9337 16.0406 65.7422 18.1759 61.6409 18.1759C57.5396 18.1759 55.3481 16.0406 55.3481 12.037C55.3481 8.00374 57.5396 5.89813 61.6409 5.89813Z" fill="#484150"/>
<path d="M40.2209 16.9638C42.0688 17.2941 44.0398 17.5042 44.9945 17.7444C46.3804 18.1046 49.0598 19.0052 48.5054 21.3168C47.8895 23.8986 42.9619 23.8986 42.9619 23.8986C36.1866 24.1087 36.4946 19.7858 36.4946 19.7858H34.3696C34.2156 24.0787 38.1575 26 42.4999 26C46.6268 26 50.7844 24.6191 50.7228 20.5663C50.6612 17.4442 47.3659 16.4235 45.7336 16.1833C48.6594 15.5529 51 13.8417 51 10.2393C51 6.93702 49.2753 5.04573 46.8424 4.47534C48.9058 3.81489 49.9529 2.37391 49.9529 2.37391L48.3514 0.962952C46.8116 3.06438 43.7934 3.33457 42.4999 3.33457C38.3423 3.33457 34 5.07575 34 10.2393C34 14.4721 36.8332 16.3334 40.2209 16.9638ZM36.3098 10.2993C36.3098 6.24655 39.6666 5.436 42.4999 5.436C45.3025 5.436 48.6902 6.24655 48.6902 10.2993C48.6902 14.3521 45.3025 15.2527 42.4999 15.2527C39.6666 15.2527 36.3098 14.3521 36.3098 10.2993Z" fill="#484150"/>
<path d="M24.2354 20.2222C27.1595 20.2222 29.5764 19.2435 31.0385 17.4345L29.6361 16.011C28.4127 17.4345 26.5031 18.2056 24.2354 18.2056C20.5354 18.2056 18.2677 16.3669 18.2677 13.0157V12.8971H31.8739C32.2618 10.1094 31.7546 7.76649 30.3522 6.1947C28.9796 4.68222 26.891 3.85184 24.2354 3.85184C19.0734 3.85184 16 6.90645 16 12.037C16 17.1676 19.0734 20.2222 24.2354 20.2222ZM18.2677 11.088C18.2677 7.76649 20.5951 5.86848 24.2354 5.86848C26.2047 5.86848 27.7563 6.40229 28.7708 7.44027C29.6361 8.30031 30.024 9.51622 29.9643 11.177H18.2677V11.088Z" fill="#484150"/>
<path d="M2.32919 18.3733V0H0V20.2222H15V18.3733H2.32919Z" fill="#484150"/>
</svg>
